arm28_optimize_states
version=1
nRows=27
nColumns=21
inDegrees=yes

# SIMM Motion File Header:
name arm28_optimize_states
datacolumns 21
datarows 27
otherdata 1
range 0.00000000 0.00013913
endheader
time	r_shoulder_elev	r_elbow_flex	r_shoulder_elev_u	r_elbow_flex_u	TRIlong.activation	TRIlong.fiber_length	TRIlat.activation	TRIlat.fiber_length	TRImed.activation	TRImed.fiber_length	BIClong.activation	BIClong.fiber_length	BICshort.activation	BICshort.fiber_length	BRA.activation	BRA.fiber_length	DeltAnt.activation	DeltAnt.fiber_length	DeltPost.activation	DeltPost.fiber_length
      0.00000000	      0.42014995	     19.09135480	      0.00000000	      0.00000000	      0.01523000	      0.07788600	      0.01523000	      0.07290200	      0.01523200	      0.14056800	      0.01523100	      0.14295600	      0.01523200	      0.08668900	      0.01523000	      0.16195800	      0.01523100	      0.10901000	      0.00000000	      0.00000000
      0.00000009	      0.42014996	     19.09135479	      0.19369515	     -0.42879219	      0.01523000	      0.07857224	      0.01523000	      0.07294763	      0.01523200	      0.14056738	      0.01523100	      0.14295545	      0.01523200	      0.08703071	      0.01523000	      0.16177134	      0.01523100	      0.11045884	      0.00000009	      0.01288562
      0.00000018	      0.42014999	     19.09135472	      0.45544499	     -0.99850798	      0.01523000	      0.07924456	      0.01523000	      0.07299272	      0.01523200	      0.14056676	      0.01523100	      0.14295490	      0.01523200	      0.08736910	      0.01523000	      0.16158875	      0.01523100	      0.11185245	      0.00000018	      0.02110518
      0.00000032	      0.42015008	     19.09135451	      0.93879948	     -2.04264771	      0.01523000	      0.08027462	      0.01523000	      0.07306249	      0.01523200	      0.14056579	      0.01523100	      0.14295404	      0.01523200	      0.08789446	      0.01523000	      0.16130952	      0.01523100	      0.11393963	      0.00000032	      0.03015463
      0.00000051	      0.42015034	     19.09135397	      1.68009360	     -3.63666600	      0.01523000	      0.08165133	      0.01523000	      0.07315702	      0.01523200	      0.14056444	      0.01523100	      0.14295284	      0.01523200	      0.08860960	      0.01523000	      0.16093729	      0.01523100	      0.11664211	      0.00000052	      0.03897446
      0.00000077	      0.42015090	     19.09135274	      2.71787090	     -5.86258514	      0.01523000	      0.08340900	      0.01523000	      0.07327972	      0.01523200	      0.14056264	      0.01523100	      0.14295124	      0.01523200	      0.08954409	      0.01523000	      0.16046360	      0.01523100	      0.11995433	      0.00000078	      0.04746888
      0.00000111	      0.42015206	     19.09135025	      4.08081549	     -8.78267802	      0.01523000	      0.08559356	      0.01523000	      0.07343508	      0.01523200	      0.14056026	      0.01523100	      0.14294912	      0.01523200	      0.09073878	      0.01523000	      0.15987707	      0.01523100	      0.12386571	      0.00000112	      0.05568379
      0.00000155	      0.42015425	     19.09134554	      5.77163174	    -12.40528081	      0.01523000	      0.08824434	      0.01523000	      0.07362736	      0.01523200	      0.14055716	      0.01523100	      0.14294637	      0.01523200	      0.09223736	      0.01523000	      0.15916830	      0.01523100	      0.12832057	      0.00000158	      0.06363979
      0.00000213	      0.42015816	     19.09133713	      7.76250690	    -16.67555989	      0.01523000	      0.09139963	      0.01523000	      0.07386064	      0.01523200	      0.14055313	      0.01523100	      0.14294280	      0.01523200	      0.09409028	      0.01523000	      0.15832798	      0.01523100	      0.13322342	      0.00000216	      0.07134438
      0.00000288	      0.42016484	     19.09132280	      9.98595584	    -21.45632625	      0.01523000	      0.09509501	      0.01523000	      0.07413824	      0.01523200	      0.14054789	      0.01523100	      0.14293817	      0.01523200	      0.09635476	      0.01523000	      0.15734678	      0.01523100	      0.13842789	      0.00000292	      0.07876884
      0.00000385	      0.42017575	     19.09129935	     12.31885732	    -26.49383397	      0.01523000	      0.09934507	      0.01523000	      0.07446044	      0.01523200	      0.14054109	      0.01523100	      0.14293215	      0.01523200	      0.09908402	      0.01523000	      0.15621903	      0.01523100	      0.14370622	      0.00000391	      0.08580434
      0.00000510	      0.42019263	     19.09126300	     14.56046567	    -31.36846708	      0.01523000	      0.10407540	      0.01523000	      0.07481822	      0.01523200	      0.14053236	      0.01523100	      0.14292444	      0.01523200	      0.10227906	      0.01523000	      0.15495884	      0.01523100	      0.14869537	      0.00000518	      0.09218785
      0.00000664	      0.42021652	     19.09121147	     16.45411287	    -35.53377236	      0.01523000	      0.10901213	      0.01523000	      0.07518470	      0.01523200	      0.14052167	      0.01523100	      0.14291501	      0.01523200	      0.10579418	      0.01523000	      0.15362832	      0.01523100	      0.15291580	      0.00000674	      0.09750011
      0.00000817	      0.42024278	     19.09115468	     17.69777605	    -38.31557599	      0.01523000	      0.11320777	      0.01523000	      0.07548558	      0.01523200	      0.14051098	      0.01523100	      0.14290561	      0.01523200	      0.10893420	      0.01523000	      0.15247456	      0.01523100	      0.15573261	      0.00000830	      0.10105481
      0.00001020	      0.42027983	     19.09107435	     18.70651484	    -40.63106082	      0.01523000	      0.11787460	      0.01523000	      0.07580319	      0.01523200	      0.14049685	      0.01523100	      0.14289322	      0.01523200	      0.11260716	      0.01523000	      0.15114982	      0.01523100	      0.15808458	      0.00001037	      0.10406805
      0.00001223	      0.42031843	     19.09099038	     19.27598729	    -41.99425566	      0.01523000	      0.12174819	      0.01523000	      0.07604886	      0.01523200	      0.14048274	      0.01523101	      0.14288087	      0.01523200	      0.11582006	      0.01523001	      0.14999872	      0.01523100	      0.15947167	      0.00001243	      0.10588825
      0.00001471	      0.42036669	     19.09088507	     19.64203953	    -42.93120253	      0.01523000	      0.12563532	      0.01523000	      0.07627506	      0.01523200	      0.14046553	      0.01523101	      0.14286588	      0.01523200	      0.11922374	      0.01523001	      0.14877074	      0.01523100	      0.16041957	      0.00001495	      0.10716913
      0.00001718	      0.42041559	     19.09077803	     19.81726879	    -43.43367123	      0.01523000	      0.12879218	      0.01523000	      0.07644159	      0.01523200	      0.14044835	      0.01523101	      0.14285096	      0.01523200	      0.12215234	      0.01523001	      0.14769195	      0.01523100	      0.16091750	      0.00001747	      0.10786556
      0.00002037	      0.42047898	     19.09063890	     19.91112457	    -43.76398356	      0.01523000	      0.13201974	      0.01523000	      0.07660140	      0.01523200	      0.14042627	      0.01523101	      0.14283186	      0.01523200	      0.12534593	      0.01523001	      0.14647079	      0.01523100	      0.16122841	      0.00002072	      0.10831682
      0.00002356	      0.42054256	     19.09049898	     19.95387211	    -43.95176050	      0.01523000	      0.13451682	      0.01523000	      0.07672412	      0.01523200	      0.14040422	      0.01523102	      0.14281288	      0.01523200	      0.12800409	      0.01523001	      0.14539594	      0.01523100	      0.16138023	      0.00002397	      0.10852859
      0.00002749	      0.42062095	     19.09032616	     19.98574904	    -44.10371293	      0.01523000	      0.13683334	      0.01523000	      0.07684320	      0.01523200	      0.14037714	      0.01523102	      0.14278970	      0.01523201	      0.13068048	      0.01523002	      0.14422794	      0.01523100	      0.16149279	      0.00002797	      0.10867495
      0.00003609	      0.42079312	     19.08994573	     20.02487255	    -44.28693174	      0.01523000	      0.13996729	      0.01523000	      0.07703150	      0.01523200	      0.14031797	      0.01523103	      0.14273954	      0.01523201	      0.13484471	      0.01523002	      0.14209564	      0.01523100	      0.16163103	      0.00003674	      0.10885018
      0.00005087	      0.42108951	     19.08928979	     20.07709133	    -44.45049929	      0.01523000	      0.14217243	      0.01523000	      0.07723515	      0.01523200	      0.14021698	      0.01523106	      0.14265551	      0.01523203	      0.13863738	      0.01523004	      0.13930048	      0.01523100	      0.16174333	      0.00005184	      0.10899529
      0.00006566	      0.42138673	     19.08863167	     20.13968057	    -44.59801888	      0.01523000	      0.14288813	      0.01523000	      0.07736448	      0.01523200	      0.14011679	      0.01523110	      0.14257417	      0.01523205	      0.14029484	      0.01523005	      0.13715604	      0.01523100	      0.16179747	      0.00006697	      0.10906976
      0.00008044	      0.42168495	     19.08797119	     20.21206663	    -44.76870947	      0.01523000	      0.14323597	      0.01523000	      0.07745418	      0.01523200	      0.14001739	      0.01523114	      0.14249551	      0.01523208	      0.14103896	      0.01523007	      0.13541277	      0.01523100	      0.16182685	      0.00008212	      0.10911356
      0.00010460	      0.42217484	     19.08688590	     20.33219441	    -45.05112418	      0.01523000	      0.14355155	      0.01523000	      0.07755233	      0.01523199	      0.13985654	      0.01523124	      0.14237267	      0.01523214	      0.14164984	      0.01523011	      0.13311481	      0.01523100	      0.16185051	      0.00010695	      0.10915327
      0.00013913	      0.42287982	     19.08532351	     20.50175692	    -45.44533925	      0.01522999	      0.14378679	      0.01522999	      0.07763534	      0.01523199	      0.13963021	      0.01523141	      0.14220943	      0.01523226	      0.14209801	      0.01523017	      0.13057047	      0.01523099	      0.16186297	      0.00014257	      0.10917883
